<?xml version="1.0" encoding="utf-8"?>
<!-- Generator: Adobe Illustrator 19.2.1, SVG Export Plug-In . SVG Version: 6.00 Build 0)  -->
<svg version="1.1" id="Ebene_1" xmlns="http://www.w3.org/2000/svg" xmlns:xlink="http://www.w3.org/1999/xlink" x="0px" y="0px"
	 viewBox="0 0 249.8 286.1" style="enable-background:new 0 0 249.8 286.1;" xml:space="preserve">
<style type="text/css">
	.st0{fill:#FFFFFF;stroke:#FFFFFF;stroke-width:0.777;}
	.st1{fill:#FFFFFF;}
	.st2{clip-path:url(#SVGID_2_);fill:none;stroke:#FFFFFF;stroke-width:0.777;}
	.st3{clip-path:url(#SVGID_4_);fill:none;stroke:#FFFFFF;stroke-width:0.777;}
</style>
<rect x="110.6" y="54.1" transform="matrix(0.7071 -0.7071 0.7071 0.7071 -19.6313 127.2666)" width="66.5" height="66.5"/>
<rect x="110.6" y="54.1" transform="matrix(0.7071 -0.7071 0.7071 0.7071 -19.6313 127.2666)" class="st0" width="66.5" height="66.5"/>
<polygon class="st1" points="0,278.2 139.2,138.9 0,-0.3 "/>
<g>
	<defs>
		<rect id="SVGID_1_" x="0" y="-73.3" width="318.6" height="359.4"/>
	</defs>
	<clipPath id="SVGID_2_">
		<use xlink:href="#SVGID_1_"  style="overflow:visible;"/>
	</clipPath>
	
		<rect x="-139.1" y="23.7" transform="matrix(0.7071 -0.7071 0.7071 0.7071 -105.2139 23.8614)" class="st2" width="230.5" height="230.5"/>
</g>
<rect x="116.8" y="138.3" transform="matrix(0.7071 -0.7071 0.7071 0.7071 -86.3788 178.1987)" width="110.2" height="110.2"/>
<rect x="116.8" y="138.3" transform="matrix(0.7071 -0.7071 0.7071 0.7071 -86.3788 178.1987)" class="st0" width="110.2" height="110.2"/>
<polygon class="st1" points="1.2,286.1 177.5,286.1 89.4,198 "/>
<g>
	<defs>
		<rect id="SVGID_3_" x="0" y="-73.3" width="318.6" height="359.4"/>
	</defs>
	<clipPath id="SVGID_4_">
		<use xlink:href="#SVGID_3_"  style="overflow:visible;"/>
	</clipPath>
	
		<rect x="9.4" y="231.1" transform="matrix(0.7071 -0.7071 0.7071 0.7071 -193.779 154.3076)" class="st3" width="159.9" height="159.9"/>
</g>
<rect x="184.2" y="92.4" transform="matrix(0.7071 -0.7071 0.7071 0.7071 -18.9198 175.4846)" width="36.3" height="36.3"/>
<rect x="184.2" y="92.4" transform="matrix(0.7071 -0.7071 0.7071 0.7071 -18.9198 175.4846)" class="st0" width="36.3" height="36.3"/>
</svg>
