<?xml version="1.0" encoding="utf-8"?>
<!-- Generator: Adobe Illustrator 19.2.1, SVG Export Plug-In . SVG Version: 6.00 Build 0)  -->
<svg version="1.1" id="Ebene_1" xmlns="http://www.w3.org/2000/svg" xmlns:xlink="http://www.w3.org/1999/xlink" x="0px" y="0px"
	 viewBox="0 0 254 286.8" style="enable-background:new 0 0 254 286.8;" xml:space="preserve">
<style type="text/css">
	.st0{fill:#FFFFFF;}
	.st1{fill:none;stroke:#FFFFFF;stroke-width:0.777;}
	.st2{clip-path:url(#SVGID_2_);fill:none;stroke:#FFFFFF;stroke-width:0.777;}
	.st3{clip-path:url(#SVGID_4_);fill:none;stroke:#FFFFFF;stroke-width:0.777;}
</style>
<rect x="109.5" y="54.8" transform="matrix(0.7071 -0.7071 0.7071 0.7071 -20.4046 126.724)" class="st0" width="66.5" height="66.5"/>
<rect x="109.5" y="54.8" transform="matrix(0.7071 -0.7071 0.7071 0.7071 -20.4046 126.724)" class="st1" width="66.5" height="66.5"/>
<polygon class="st0" points="-1.1,278.8 138.2,139.6 -1.1,0.4 "/>
<g>
	<defs>
		<rect id="SVGID_1_" x="-1.1" y="-72.6" width="318.6" height="359.4"/>
	</defs>
	<clipPath id="SVGID_2_">
		<use xlink:href="#SVGID_1_"  style="overflow:visible;"/>
	</clipPath>
	
		<rect x="-140.1" y="24.3" transform="matrix(0.7071 -0.7071 0.7071 0.7071 -105.9872 23.3188)" class="st2" width="230.5" height="230.5"/>
</g>
<rect x="115.8" y="138.9" transform="matrix(0.7071 -0.7071 0.7071 0.7071 -87.1522 177.6561)" class="st0" width="110.2" height="110.2"/>
<rect x="115.8" y="138.9" transform="matrix(0.7071 -0.7071 0.7071 0.7071 -87.1522 177.6561)" class="st1" width="110.2" height="110.2"/>
<polygon class="st0" points="0.2,286.8 176.5,286.8 88.3,198.6 "/>
<g>
	<defs>
		<rect id="SVGID_3_" x="-1.1" y="-72.6" width="318.6" height="359.4"/>
	</defs>
	<clipPath id="SVGID_4_">
		<use xlink:href="#SVGID_3_"  style="overflow:visible;"/>
	</clipPath>
	
		<rect x="8.4" y="231.8" transform="matrix(0.7071 -0.7071 0.7071 0.7071 -194.5524 153.765)" class="st3" width="159.9" height="159.9"/>
</g>
<rect x="183.2" y="93.1" transform="matrix(0.7071 -0.7071 0.7071 0.7071 -19.6932 174.942)" class="st0" width="36.3" height="36.3"/>
<rect x="183.2" y="93.1" transform="matrix(0.7071 -0.7071 0.7071 0.7071 -19.6932 174.942)" class="st1" width="36.3" height="36.3"/>
</svg>
