<?xml version="1.0" encoding="utf-8"?>
<!-- Generator: Adobe Illustrator 19.2.1, SVG Export Plug-In . SVG Version: 6.00 Build 0)  -->
<svg version="1.1" id="Ebene_1" xmlns="http://www.w3.org/2000/svg" xmlns:xlink="http://www.w3.org/1999/xlink" x="0px" y="0px"
	 viewBox="0 0 21.8 21.8" style="enable-background:new 0 0 21.8 21.8;" xml:space="preserve">
<style type="text/css">
	.st0{clip-path:url(#SVGID_2_);fill:#878787;}
	.st1{fill:#878787;}
</style>
<g>
	<g>
		<defs>
			<rect id="SVGID_1_" x="0" width="21.8" height="21.8"/>
		</defs>
		<clipPath id="SVGID_2_">
			<use xlink:href="#SVGID_1_"  style="overflow:visible;"/>
		</clipPath>
		<path class="st0" d="M17.6,13.4c-0.1,0.9-0.8,2.1-1.7,2.2c-3.1,0.2-6.8,0.2-10,0c-1-0.1-1.7-1.3-1.7-2.2c-0.2-1.9-0.2-3,0-4.9
			C4.3,7.6,5,6.4,5.9,6.2c3.2-0.3,6.9-0.2,10,0c1.1,0,1.7,1.2,1.7,2.1C17.8,10.3,17.8,11.5,17.6,13.4 M10.9,0C4.9,0,0,4.9,0,10.9
			c0,6,4.9,10.9,10.9,10.9c6,0,10.9-4.9,10.9-10.9S17,0,10.9,0"/>
	</g>
	<polygon class="st1" points="9.6,13.7 13.6,10.9 9.6,8.2 	"/>
</g>
</svg>
