<?xml version="1.0" encoding="utf-8"?>
<!-- Generator: Adobe Illustrator 19.2.1, SVG Export Plug-In . SVG Version: 6.00 Build 0)  -->
<svg version="1.1" id="Ebene_1" xmlns="http://www.w3.org/2000/svg" xmlns:xlink="http://www.w3.org/1999/xlink" x="0px" y="0px"
	 viewBox="0 0 109.5 148.4" style="enable-background:new 0 0 109.5 148.4;" xml:space="preserve">
<style type="text/css">
	.st0{clip-path:url(#SVGID_2_);fill:#878787;}
</style>
<g>
	<defs>
		<rect id="SVGID_1_" width="109.5" height="148.4"/>
	</defs>
	<clipPath id="SVGID_2_">
		<use xlink:href="#SVGID_1_"  style="overflow:visible;"/>
	</clipPath>
	<path class="st0" d="M54.6,84.6c8.6,0,16-3.1,22.1-9.1c6.1-6.1,9.1-13.5,9.1-22.1c0-8.6-3-16-9.1-22c-6.1-6-13.5-9.1-22.1-9.1
		s-16,3-22,9.1c-6.1,6.1-9.1,13.4-9.1,22c0,8.6,3,16,9.1,22.1C38.7,81.6,46,84.6,54.6,84.6 M54.7,0c9.9,0,19.1,2.5,27.5,7.6
		c8.4,5.1,15,11.9,19.9,20.5c4.9,8.6,7.3,17.8,7.3,27.8c0,9.9-2.9,20.9-8.8,32.9c-5.9,9.2-12.6,18.8-20.2,28.7
		c-7.5,9.9-13.6,17.6-18.2,22.9l-6.9,8c-0.8-0.7-1.9-1.8-3.3-3.2c-1.4-1.4-4.1-4.2-8.1-8.5s-7.9-8.7-11.6-13.2
		c-3.7-4.5-8-10-12.6-16.4c-4.6-6.5-8.7-12.7-12.2-18.8C2.6,77.2,0,66.6,0,56.7c0-10,2.4-19.4,7.3-28C12.2,20,18.9,13,27.3,7.8
		C35.7,2.6,44.9,0,54.7,0"/>
</g>
</svg>
